<svg version="1.1" xmlns="http://www.w3.org/2000/svg" xmlns:xlink="http://www.w3.org/1999/xlink" width="226.5" height="228.792" viewBox="-40.2,-131.5,226.5,228.792"><g fill="#000000" fill-rule="nonzero" stroke="none" stroke-width="1" stroke-linecap="butt" stroke-linejoin="miter" stroke-miterlimit="10" stroke-dasharray="" stroke-dashoffset="0" font-family="none" font-weight="none" font-size="none" text-anchor="none" style="mix-blend-mode: normal">
  <rect x="-40.2" y="-131.5" width="226.5" height="228.792" fill="#FAFAFA"/>
<g id="Group 1"><path d="M50.6,-108.5c-14.6,12.6 -27,23 -27.6,23c-0.6,0 -3.7,-1.4 -7,-3c-3.3,-1.7 -6.4,-3 -7,-3c-0.6,0 -10.1,8.5 -21.2,19c-11,10.4 -20.4,19 -21,19c-0.5,0 -2.3,-1 -4,-2.1l-3,-2.2l0.7,2.4c0.4,1.3 1.4,4 2.3,5.9c3.2,6.6 17.6,11.5 36.6,12.5l9.1,0.5l-8.5,-1.9c-4.7,-1.1 -9.8,-2.5 -11.5,-3.2c-1.6,-0.6 -4.6,-1.3 -6.6,-1.4c-2,-0.2 -4.7,-0.9 -6,-1.6c-2.3,-1.3 -2.3,-1.4 2.1,-2c2.5,-0.4 9,-0.8 14.6,-0.8c10,-0.1 10.1,-0.1 19.5,4.5c11.6,5.6 24.6,14.2 28.8,18.9c6.1,7 3,7 -8.4,0c-11.4,-6.9 -25.6,-10.5 -41.8,-10.5c-5.1,0 -12.1,-0.5 -15.6,-1c-3.5,-0.6 -6.6,-0.8 -6.9,-0.6c-1,1 7.3,7.7 12.5,10.2c5.5,2.5 15.6,4.8 25.8,5.8c4.1,0.4 5.5,0.3 4.5,-0.4c-0.8,-0.5 -2.2,-1 -3.1,-1c-0.9,0 -4.9,-1.6 -8.9,-3.6c-9.6,-4.8 -8.4,-6.1 4.4,-4.6c9.7,1.2 17.6,3.6 23.3,7.1c2.4,1.5 3.3,3 3.8,5.8c2.6,16.2 5.8,24.8 12.6,33.3c4.7,5.9 4.6,6.2 -3.5,13.8c-3.8,3.6 -4.9,5.1 -3.4,4.6c5.4,-1.6 14.8,-10.8 14.8,-14.4c0,-0.7 -1.4,-2.8 -3,-4.7c-4.5,-5 -9,-14.6 -10.6,-22.6c-0.8,-3.8 -1.3,-7.4 -1.2,-7.9c0.2,-0.5 1.5,0 2.9,1.1c2.1,1.6 2.7,3.1 3.1,7.4c0.6,6.9 5.2,16.5 11.8,24.5l5.2,6.4l-3.8,5.6c-6.1,9.2 -15,24.5 -16.2,28c-2.2,6.3 0.6,8 5.7,3.6c3.5,-2.9 4.1,-4.8 1.1,-3.9c-1.3,0.4 -2,0.2 -2,-0.7c0,-2 5.2,-12.6 11.4,-23.1l5.6,-9.6l-4,-5.7c-2.2,-3.1 -4.9,-8.1 -6,-11.1c-2.1,-5.6 -2.7,-12.3 -1.1,-12.3c1.7,0 16.1,19 16.1,21.2c0,0.5 -0.7,0.8 -1.5,0.8c-0.8,0 -1.5,0.7 -1.5,1.5c0,0.8 0.7,1.5 1.5,1.5c1.2,0 1.5,0.7 1,3.2c-4.1,23.6 -11.5,67.5 -11.5,68.9c0,1.6 3.6,3.3 5,2.4c0.4,-0.2 1.2,-4.4 1.9,-9.2c1.9,-13.3 2,-13.6 4.5,-6.7c2.5,6.8 6.3,13.4 7.7,13.4c1.1,0 7.9,-13.6 7.9,-15.7c0,-0.7 0.4,-1.3 0.8,-1.3c0.5,0 1.4,3.9 2.1,8.8c2,13.6 1.9,13.5 5,12.7c1.4,-0.4 2.7,-0.8 2.8,-0.9c0.1,-0.1 -1.3,-9.6 -3.1,-21.2c-7.5,-45.8 -7.9,-48.8 -6.7,-50.6c0.9,-1.4 0.8,-1.8 -0.5,-1.8c-0.8,0 -1.2,-0.5 -0.9,-1c0.4,-0.6 1.1,-0.8 1.6,-0.5c0.5,0.4 0.9,0.1 0.9,-0.4c0,-0.6 -0.7,-1.1 -1.5,-1.1c-0.8,0 -1.5,-0.4 -1.5,-0.9c0,-1.8 9.9,-15.6 13.9,-19.6l4.1,-3.9v3.7c0,5.1 -3.3,13.4 -8,20.1c-2.2,3.1 -4,5.9 -4,6.1c0,0.2 2,3.8 4.5,8c5.2,8.7 10.9,19.9 12,23.4c0.6,2.1 0.5,2.3 -1.4,1.8c-3,-0.7 -2.7,1.7 0.5,4.2c4.1,3.2 6.4,2.8 6.4,-1.2c0,-3.1 -8.8,-19.3 -17.1,-31.4c-2.1,-3 -2.9,-5 -2.3,-5.8c0.5,-0.7 2.9,-3.7 5.3,-6.6c5.8,-7.1 10.1,-16.4 10.8,-23.4c0.5,-4.5 1.1,-6 3,-7.2c1.3,-0.9 2.6,-1.3 2.9,-1.1c0.3,0.3 -0.2,3.7 -1,7.5c-1.6,7.8 -5.8,16.7 -10.5,22.7c-1.7,2.1 -3.1,4.3 -3.1,4.8c0,3.5 6.1,10.4 11.8,13.3c4.9,2.4 4.8,1.4 -0.3,-2.9c-2.5,-2 -5.2,-5 -6,-6.7c-1.5,-2.9 -1.5,-3.1 1.8,-7c6.7,-7.7 9.4,-15.1 13.3,-35.6c1,-5.3 19.4,-11.6 32.1,-11.1l6.8,0.3l-4.8,2.9c-2.6,1.5 -7.3,3.7 -10.5,4.7l-5.7,1.9l7.5,-0.6c10.6,-0.7 19.4,-2.9 26,-6.5c5.4,-2.9 11.9,-8.4 10.9,-9.3c-0.2,-0.2 -2.6,0 -5.4,0.4c-2.7,0.5 -9.1,0.9 -14.1,0.9c-9.8,0.1 -23.8,2.2 -31.9,4.7c-2.7,0.9 -7.9,3.3 -11.5,5.4c-11.7,6.9 -15,7.6 -11.7,2.6c3.1,-4.7 16.2,-13.6 32.7,-22.2c5.3,-2.8 5.9,-2.9 19.8,-2.8c7.8,0.1 14.6,0.4 14.9,0.8c1,1 -1.6,2.5 -5.7,3.1c-1.9,0.4 -6.2,1.4 -9.5,2.5c-3.3,1 -8.1,2.1 -10.8,2.5c-8.2,1.3 -5.9,2.1 3.6,1.3c17.2,-1.3 29.9,-5.4 33.9,-10.8c1,-1.4 2.1,-4 2.5,-5.9l0.6,-3.5l-3,2.2c-1.7,1.2 -3.7,2.2 -4.5,2.2c-0.7,0 -6.4,-4.7 -12.7,-10.4c-6.3,-5.7 -12,-10.2 -12.7,-9.9c-0.8,0.3 -1,-0.4 -0.7,-2.1c0.7,-3.7 -0.9,-3.2 -3.1,0.9c-1,1.9 -2.7,4.2 -3.7,5.1c-1.8,1.6 -3.1,0.5 -26.5,-22.2c-13.5,-13.1 -28.5,-27.6 -33.4,-32.2l-8.9,-8.2zM88.8,-110.2l11.3,11.3l-2.6,1.2c-3.6,1.7 -3.7,1.6 -12.6,-2.2l-8,-3.5l-8.4,3.6c-8,3.4 -8.6,3.5 -12,2.1c-2,-0.8 -3.7,-1.8 -3.8,-2.2c-0.2,-0.7 23.2,-21.5 24.3,-21.6c0.3,0 5.6,5.1 11.8,11.3zM85.7,-93.2l7.9,3.4l5.7,-2.5l5.7,-2.5l15.8,15.4c8.6,8.5 15.8,15.7 16,16.1c0.2,0.4 -1.4,1 -3.5,1.3c-2.1,0.3 -5.3,1.4 -7.2,2.3c-3.4,1.7 -17.1,13.2 -22.4,19l-2.9,3l3.1,0.7c1.7,0.4 3.1,1.3 3.1,2c0,0.7 -2.1,3.5 -4.6,6.1c-8.3,8.7 -13.1,14.8 -16.3,20.5c-1.7,3.1 -3.1,5.9 -3.1,6.3c0,0.4 2.1,-1.1 4.7,-3.3c2.5,-2.3 4.8,-3.9 5.1,-3.7c0.2,0.3 -2.9,4.3 -6.9,9c-4,4.7 -7.4,8.4 -7.6,8.3c-0.1,-0.2 -0.7,-3.2 -1.2,-6.7c-1,-5.9 -0.7,-8.5 3.4,-30c7.7,-40.7 8.5,-46.1 7.9,-50.2c-0.4,-2.2 -1.2,-3.7 -1.8,-3.5c-2.8,0.9 -4.8,7.8 -8.7,29.8c-2.2,12.9 -4.2,23.6 -4.4,23.8c-0.5,0.4 -1.1,-3.4 -4,-24.4c-2.8,-20.4 -3.9,-25 -6.5,-28.5l-1.8,-2.4l-1.2,4.4c-1.2,4.1 -0.7,7.8 4.4,39.5c4.5,27.3 5.6,36.2 5,40.3c-0.3,2.9 -1,5.4 -1.4,5.7c-0.8,0.5 -14.4,-14.4 -13.7,-15.1c0.3,-0.3 2.3,1.1 4.5,3c2.2,2 4.2,3.6 4.6,3.6c1.2,0 -4.2,-9.6 -8.3,-14.7c-2.2,-2.8 -6.7,-8 -10,-11.6c-6.3,-6.6 -6.6,-8.7 -1.4,-8.7c1.3,0 2.3,-0.3 2.2,-0.8c-0.2,-1.6 -19.8,-18.7 -24,-20.9c-2.4,-1.2 -7,-3 -10.1,-3.8c-5.8,-1.6 -12.8,-6.5 -12.8,-9c0,-0.7 2.7,-3.7 6.1,-6.6l6.1,-5.2l6.4,3.1c3.5,1.8 6.9,3.2 7.4,3.2c0.8,0 8.3,-6.2 19.6,-16.2c2,-1.8 2.2,-1.8 7.8,0.7c7,3.1 8.6,3.1 16.1,-0.5c3.3,-1.6 6.8,-2.9 7.7,-2.9c0.9,-0.1 5.2,1.4 9.5,3.2zM-2.5,-64.9c2.5,4.7 9.9,11.2 16.6,14.7c4.6,2.4 5,2.5 2.4,0.5c-4.6,-3.5 -10.5,-9.5 -10.5,-10.5c0,-1.7 9.2,0.9 13.5,3.8c6.5,4.3 14.5,12 14.5,13.7c0,1 -0.4,2.3 -0.9,3.1c-0.8,1.2 -2.9,0.5 -11.8,-4.1c-5.9,-3.1 -13.3,-6.3 -16.3,-7.3c-6.5,-2 -12.7,-5.5 -15.4,-8.4c-1.9,-2.1 -1.9,-2.2 1.4,-5.6c1.9,-1.9 3.7,-3.5 4,-3.5c0.3,0 1.4,1.6 2.5,3.6zM156.4,-61.6c1.6,1.8 1.5,2 -1.9,4.8c-1.9,1.6 -7.2,4.2 -11.6,5.8c-4.4,1.5 -12.3,5 -17.6,7.7c-5.2,2.7 -10.2,4.7 -10.9,4.4c-0.8,-0.3 -1.4,-1.6 -1.4,-3c0,-2.5 7.6,-9.8 15.5,-14.8c4.7,-3 11.5,-4.4 11.5,-2.4c0,1.4 -5.3,6.6 -10,9.8c-1.9,1.4 -2,1.6 -0.5,1.1c2.1,-0.6 16.2,-9.8 20.5,-13.2c3.1,-2.6 4.2,-2.6 6.4,-0.2zM-10,-55.5l4,4h-8.7h-8.7l3.9,-4c2.1,-2.2 4.3,-4 4.7,-4c0.4,0 2.6,1.8 4.8,4zM164,-55l3.4,3.5h-6.9h-6.9l3.4,-3.5c1.9,-1.9 3.4,-3.5 3.5,-3.5c0.1,0 1.6,1.6 3.5,3.5zM77.3,49.5c0.2,11.5 -2,23 -4.3,23c-1.8,0 -3.4,-8.6 -3.4,-17.5c0,-6 0.8,-12.2 2.4,-18.5l2.4,-9.5l1.4,5.5c0.7,3 1.4,10.7 1.5,17z" id="CompoundPath 1"/><path d="M18.3,-15.8c-4.7,2.7 -14.6,4.3 -15.7,2.5c-0.5,-0.8 -1.3,-0.8 -2.9,-0.1c-1.8,0.8 -3.6,0.6 -7.7,-1c-3,-1.1 -5.6,-1.8 -5.8,-1.6c-0.3,0.3 1.7,2.7 4.4,5.4c5.5,5.5 12.2,8.1 20.8,8.1c6,0 5.2,-1 -2.8,-3.4c-6,-1.8 -6.3,-3.6 -0.5,-3.6c3.1,0 12,-4.3 14.4,-7c2.4,-2.6 1,-2.4 -4.2,0.7z" id="Path 1"/><path d="M124.5,-16.5c2.7,3 10.5,6.8 15.4,7.6c2.2,0.4 3.9,1 3.6,1.4c-0.2,0.4 -3.2,1.5 -6.5,2.4c-3.3,0.9 -6,2 -6,2.3c0,0.3 3.5,0.4 7.9,0.1c6.2,-0.4 8.8,-1 12.4,-3.1c4,-2.4 9.7,-8.2 9.7,-9.9c0,-0.4 -2.2,0.2 -4.9,1.2c-3.6,1.4 -7.1,1.9 -13.8,1.7c-7.6,-0.2 -9.7,-0.6 -14.3,-3c-4.9,-2.5 -5.2,-2.6 -3.5,-0.7z" id="Path 1"/><path d="M22.1,-2.8c-4.8,3.3 -13.5,5.6 -18.7,5c-2.4,-0.2 -4.4,-0.1 -4.4,0.4c0,0.5 1.7,2 3.8,3.4c5,3.3 12.5,4.2 17.2,2.2l3.5,-1.5l-4,-0.1c-6.1,-0.2 -7.1,-1.4 -2.7,-3.4c3.6,-1.6 10,-7.3 9.1,-8c-0.2,-0.2 -1.9,0.7 -3.8,2z" id="Path 1"/><path d="M123.9,-1.1c1.9,1.9 4.7,4 6.2,4.7c4.3,1.7 3.5,2.9 -1.8,2.9l-4.8,0.1l2.9,1.5c4.6,2.6 13.5,1.5 18.3,-2.2l3.8,-2.9l-7.5,-0.6c-8,-0.6 -11.6,-1.7 -16,-4.9c-4.3,-3.1 -4.8,-2.4 -1.1,1.4z" id="Path 1"/><path d="M28.4,8.6c-2.8,3.1 -9.7,6.9 -16.2,8.9l-5.7,1.8l5.7,1.6c6.4,1.9 11.3,1.2 15.8,-2.4l2.5,-2h-2.7c-3.5,0 -3.5,-0.5 0.2,-4.7c1.7,-1.8 3,-3.8 3,-4.3c0,-1.4 -0.5,-1.2 -2.6,1.1z" id="Path 1"/><path d="M116,7.2c0,1.2 3.1,5.5 5.5,7.5c2,1.7 2,1.7 -0.7,1.8c-4.1,0 -3.4,1.8 1.5,4c4.8,2.2 7.6,2.4 13,0.9c3.6,-1 5.1,-2.9 2.2,-2.9c-3.5,0 -12.7,-4.4 -16.9,-8.1c-2.5,-2.2 -4.6,-3.7 -4.6,-3.2z" id="Path 1"/><path d="M33.8,19.3c-2,2.8 -8,7 -11,7.7c-1.6,0.4 -2.5,1.1 -2.2,1.6c0.7,1.2 12.5,1.1 14.4,-0.1c1.2,-0.8 0.9,-1 -1.3,-1h-2.9l2.6,-3.1c1.4,-1.7 2.6,-3.9 2.6,-5c0,-2.4 -0.5,-2.4 -2.2,-0.1z" id="Path 1"/><path d="M111.4,20.1c0.4,1.6 1.7,3.9 2.8,5.1l2.1,2.3h-3.4c-2.5,0 -3,0.3 -1.9,1c2.4,1.5 8.7,2.2 13.2,1.5l4.3,-0.8l-5.1,-2.2c-2.8,-1.2 -6.8,-4 -8.9,-6.1l-3.8,-3.8z" id="Path 1"/><path d="M53.4,53.2c-3.1,7.1 -3.9,10.3 -4.2,16.6c-0.5,8.6 0.5,11 3.4,8.6c1.8,-1.5 2.8,-3.7 3.9,-8.9c0.7,-3.1 0.6,-3.3 -0.8,-2.1c-4.4,3.6 -4.4,-2.5 -0.1,-15.2c1.3,-3.9 2.2,-7.2 2,-7.4c-0.2,-0.2 -2.1,3.6 -4.2,8.4z" id="Path 1"/><path d="M91.7,52.5c3.2,10.1 4,16 2.1,16c-0.8,0 -2,-0.6 -2.7,-1.3c-1.1,-1 -1.2,-0.6 -0.6,2.3c1.1,5.2 3.5,10 5.1,10c4.3,0 3.9,-10.9 -0.7,-23.1c-4,-10.3 -6.3,-13.1 -3.2,-3.9z" id="Path 1"/></g></g></svg>